<svg xmlns="http://www.w3.org/2000/svg" viewBox="0 0 518.9 657.47"><title>Asset 1</title><g id="Layer_2" data-name="Layer 2"><g id="Layer_1-2" data-name="Layer 1"><path d="M442,398.16a182.36,182.36,0,0,1-364.72,0h-.07a36.47,36.47,0,0,0-72.94,0c0,.6.06,1.18.09,1.77,1,140.18,114.87,253.53,255.28,253.53,141,0,255.31-114.3,255.31-255.31Z" style="fill:#ffc107;stroke:#000;stroke-miterlimit:10;stroke-width:8px"/><circle cx="259.59" cy="40.47" r="36.47" style="fill:#ffc107;stroke:#000;stroke-miterlimit:10;stroke-width:8px"/><path d="M514.52,208.53A109.4,109.4,0,1,0,369,320.48V213.53a36.47,36.47,0,0,1,36.47-36.47h0A36.47,36.47,0,0,1,442,213.53V405.85a36.47,36.47,0,1,0,72.94,0V213.53A36.61,36.61,0,0,0,514.52,208.53Z" style="fill:#2799b2;stroke:#000;stroke-miterlimit:10;stroke-width:8px"/><path d="M369,213.53a36.59,36.59,0,0,0-.38-5A109.39,109.39,0,0,0,151,203.95a36.59,36.59,0,0,0-.66,6.85h0a36.47,36.47,0,1,0,72.94,0h0c0-.5-.05-1-.07-1.48a36.44,36.44,0,0,1,36.37-34.41h0a36.47,36.47,0,0,1,36.47,36.47v123.3a36.47,36.47,0,0,1-36.47,36.47h0a36.47,36.47,0,0,1-36.47-36.47v-7.39a36.47,36.47,0,0,1-36.29,32.93h0a36.44,36.44,0,0,1-36.39-34.84c-.17,2.49-.26,5-.26,7.52a109.42,109.42,0,1,0,218.83,0c0-1.44-.05-2.86-.11-4.29,0-.71.11-1.42.11-2.15Z" style="fill:#2799b2;stroke:#000;stroke-miterlimit:10;stroke-width:8px"/><path d="M223.3,331.15a36.47,36.47,0,0,0-36.47-36.47H186a36.47,36.47,0,0,0-36.47,36.47V332c0,.3.21-4.31.22-4l-.18,4.9a36.41,36.41,0,0,1-35.82,30h0a36.45,36.45,0,0,1-36.41-35.22,36.66,36.66,0,0,1,34.88-31.83c.51,0,1,.08,1.53.08a36.47,36.47,0,0,0,36.47-36.47h0A36.47,36.47,0,0,0,113.7,223h-.05a109.43,109.43,0,0,0-36.42,6.22V144.37c0-.45-.05-.88-.07-1.33V76.91A36.44,36.44,0,0,0,40.73,40.47h0A36.44,36.44,0,0,0,4.29,76.91V325.13c-.17,2.49-.29,5-.29,7.54A109.65,109.65,0,0,0,113.65,442.32h.05A109.57,109.57,0,0,0,223.3,332.91h0c0-.3,0-.59,0-.89Z" style="fill:#2799b2;stroke:#000;stroke-miterlimit:10;stroke-width:8px"/><path d="M282.17,35.53A17.65,17.65,0,0,0,264.8,18.16c-3.22-.09-3.22,4.91,0,5a12.54,12.54,0,0,1,12.37,12.37c.09,3.21,5.09,3.22,5,0Z"/><path d="M13.85,88.2v28.72c0,3.22,5,3.22,5,0V88.2c0-3.22-5-3.22-5,0Z"/><path d="M14.63,138.11v75.71c0,3.22,5,3.22,5,0V138.11c0-3.22-5-3.22-5,0Z"/><path d="M498.58,384.81v19.35c0,3.22,5,3.22,5,0V384.81c0-3.22-5-3.22-5,0Z"/><path d="M498.58,295.85v72c0,3.22,5,3.22,5,0v-72c0-3.22-5-3.22-5,0Z"/><path d="M306.62,285.18v19.35c0,3.22,5,3.22,5,0V285.18c0-3.22-5-3.22-5,0Z"/><path d="M306.62,265.86v7.77c0,3.22,5,3.22,5,0v-7.77c0-3.22-5-3.22-5,0Z"/><path d="M228.18,376.94a46,46,0,0,0,64.17,0c2.32-2.24-1.22-5.77-3.54-3.54a40.86,40.86,0,0,1-57.1,0c-2.31-2.24-5.85,1.29-3.54,3.54Z"/><path d="M438.35,167.93a46,46,0,0,0-64.17,0c-2.32,2.24,1.22,5.77,3.54,3.54a40.86,40.86,0,0,1,57.1,0c2.31,2.24,5.85-1.29,3.54-3.54Z"/><path d="M111.33,279.16c-25.05-1.93-46.45,16.44-49.15,41.23-.35,3.19,4.65,3.17,5,0a40.89,40.89,0,0,1,44.15-36.23c3.21.25,3.19-4.75,0-5Z"/><circle cx="297.92" cy="367.84" r="2.76"/><circle cx="64.25" cy="330.95" r="2.77"/><path d="M61.34,432.48C67.16,459,76.42,485,90.91,508.07a186.52,186.52,0,0,0,57.4,57.75,234.14,234.14,0,0,0,47.49,22.92c3,1.09,4.34-3.74,1.33-4.82-27.78-10-53.94-24.6-75.19-45.27-18.71-18.2-33-40.46-42.76-64.6a266,266,0,0,1-13-42.89c-.69-3.14-5.51-1.81-4.82,1.33Z"/><path d="M207.34,592.44l8.83,1.57c3.15.56,4.5-4.26,1.33-4.82l-8.83-1.57c-3.15-.56-4.5,4.26-1.33,4.82Z"/></g></g></svg>