<svg id="Layer_1" data-name="Layer 1" xmlns="http://www.w3.org/2000/svg" viewBox="0 0 671.97 671.97"><title>ic_botic</title><path d="M580.29,467.27a182.36,182.36,0,1,1-364.72,0h-.07a36.47,36.47,0,0,0-72.94,0c0,.6.06,1.18.09,1.77,1,140.18,114.87,253.53,255.28,253.53,141,0,255.31-114.3,255.31-255.31Z" transform="translate(-59.61 -64.11)" style="fill:#ffc107;stroke:#000;stroke-miterlimit:10;stroke-width:8px"/><circle cx="338.32" cy="45.47" r="36.47" style="fill:#ffc107;stroke:#000;stroke-miterlimit:10;stroke-width:8px"/><path d="M652.86,277.64A109.4,109.4,0,1,0,507.35,389.58V282.64a36.47,36.47,0,0,1,36.47-36.47h0a36.47,36.47,0,0,1,36.47,36.47V475a36.47,36.47,0,1,0,72.94,0V282.64A36.61,36.61,0,0,0,652.86,277.64Z" transform="translate(-59.61 -64.11)" style="fill:#2799b2;stroke:#000;stroke-miterlimit:10;stroke-width:8px"/><path d="M507.35,282.64a36.59,36.59,0,0,0-.38-5,109.39,109.39,0,0,0-217.61-4.58,36.59,36.59,0,0,0-.66,6.85h0a36.47,36.47,0,0,0,72.94,0h0c0-.5-.05-1-.07-1.48A36.44,36.44,0,0,1,397.93,244h0a36.47,36.47,0,0,1,36.47,36.47v123.3a36.47,36.47,0,0,1-36.47,36.47h0a36.47,36.47,0,0,1-36.47-36.47V396.4a36.47,36.47,0,0,1-36.29,32.93h0a36.44,36.44,0,0,1-36.39-34.84c-.17,2.49-.26,5-.26,7.52a109.42,109.42,0,1,0,218.83,0c0-1.44-.05-2.86-.11-4.29,0-.71.11-1.42.11-2.15Z" transform="translate(-59.61 -64.11)" style="fill:#2799b2;stroke:#000;stroke-miterlimit:10;stroke-width:8px"/><path d="M361.63,400.26a36.47,36.47,0,0,0-36.47-36.47h-.86a36.47,36.47,0,0,0-36.47,36.47v.86c0,.3.21-4.31.22-4l-.18,4.9a36.41,36.41,0,0,1-35.82,30h0a36.45,36.45,0,0,1-36.41-35.22A36.66,36.66,0,0,1,250.51,365c.51,0,1,.08,1.53.08a36.47,36.47,0,0,0,36.47-36.47h0A36.47,36.47,0,0,0,252,292.13H252a109.43,109.43,0,0,0-36.42,6.22V213.47c0-.45-.05-.88-.07-1.33V146a36.44,36.44,0,0,0-36.44-36.44h0A36.44,36.44,0,0,0,142.63,146V394.24c-.17,2.49-.29,5-.29,7.54A109.65,109.65,0,0,0,252,511.43H252A109.57,109.57,0,0,0,361.63,402h0c0-.3,0-.59,0-.89Z" transform="translate(-59.61 -64.11)" style="fill:#2799b2;stroke:#000;stroke-miterlimit:10;stroke-width:8px"/><path d="M420.51,104.63a17.65,17.65,0,0,0-17.37-17.37c-3.22-.09-3.22,4.91,0,5a12.54,12.54,0,0,1,12.37,12.37c.09,3.21,5.09,3.22,5,0Z" transform="translate(-59.61 -64.11)"/><path d="M152.19,157.31V186c0,3.22,5,3.22,5,0V157.31c0-3.22-5-3.22-5,0Z" transform="translate(-59.61 -64.11)"/><path d="M153,207.22v75.71c0,3.22,5,3.22,5,0V207.22c0-3.22-5-3.22-5,0Z" transform="translate(-59.61 -64.11)"/><path d="M636.92,453.91v19.35c0,3.22,5,3.22,5,0V453.91c0-3.22-5-3.22-5,0Z" transform="translate(-59.61 -64.11)"/><path d="M636.92,365v72c0,3.22,5,3.22,5,0V365c0-3.22-5-3.22-5,0Z" transform="translate(-59.61 -64.11)"/><path d="M445,354.29v19.35c0,3.22,5,3.22,5,0V354.29c0-3.22-5-3.22-5,0Z" transform="translate(-59.61 -64.11)"/><path d="M445,335v7.77c0,3.22,5,3.22,5,0V335c0-3.22-5-3.22-5,0Z" transform="translate(-59.61 -64.11)"/><path d="M366.52,446.05a46,46,0,0,0,64.17,0c2.32-2.24-1.22-5.77-3.54-3.54a40.86,40.86,0,0,1-57.1,0c-2.31-2.24-5.85,1.29-3.54,3.54Z" transform="translate(-59.61 -64.11)"/><path d="M576.69,237a46,46,0,0,0-64.17,0c-2.32,2.24,1.22,5.77,3.54,3.54a40.86,40.86,0,0,1,57.1,0c2.31,2.24,5.85-1.29,3.54-3.54Z" transform="translate(-59.61 -64.11)"/><path d="M249.67,348.26c-25.05-1.93-46.45,16.44-49.15,41.23-.35,3.19,4.65,3.17,5,0a40.89,40.89,0,0,1,44.15-36.23c3.21.25,3.19-4.75,0-5Z" transform="translate(-59.61 -64.11)"/><circle cx="376.65" cy="372.84" r="2.76"/><circle cx="142.98" cy="335.95" r="2.77"/><path d="M199.67,501.58c5.83,26.54,15.08,52.5,29.57,75.59a186.52,186.52,0,0,0,57.4,57.75,234.14,234.14,0,0,0,47.49,22.92c3,1.09,4.34-3.74,1.33-4.82-27.78-10-53.94-24.6-75.19-45.27-18.71-18.2-33-40.46-42.76-64.6a266,266,0,0,1-13-42.89c-.69-3.14-5.51-1.81-4.82,1.33Z" transform="translate(-59.61 -64.11)"/><path d="M345.68,661.55l8.83,1.57c3.15.56,4.5-4.26,1.33-4.82L347,656.73c-3.15-.56-4.5,4.26-1.33,4.82Z" transform="translate(-59.61 -64.11)"/><rect width="671.97" height="671.97" style="fill:none"/></svg>