<svg id="Layer_1" data-name="Layer 1" xmlns="http://www.w3.org/2000/svg" viewBox="0 0 518.9 657.47"><title>ic_botic-whitespace</title><path d="M578.79,494.27a182.36,182.36,0,1,1-364.72,0H214a36.47,36.47,0,0,0-72.94,0c0,.6.06,1.18.09,1.77,1,140.18,114.87,253.53,255.28,253.53,141,0,255.31-114.3,255.31-255.31Z" transform="translate(-136.84 -96.11)" style="fill:#fff;stroke:#000;stroke-miterlimit:10;stroke-width:8px"/><circle cx="259.59" cy="40.47" r="36.47" style="fill:#fff;stroke:#000;stroke-miterlimit:10;stroke-width:8px"/><path d="M651.36,304.64A109.4,109.4,0,1,0,505.85,416.58V309.63a36.47,36.47,0,0,1,36.47-36.47h0a36.47,36.47,0,0,1,36.47,36.47V502a36.47,36.47,0,1,0,72.94,0V309.63A36.61,36.61,0,0,0,651.36,304.64Z" transform="translate(-136.84 -96.11)" style="fill:#fff;stroke:#000;stroke-miterlimit:10;stroke-width:8px"/><path d="M505.85,309.63a36.59,36.59,0,0,0-.38-5,109.39,109.39,0,0,0-217.61-4.58,36.59,36.59,0,0,0-.66,6.85h0a36.47,36.47,0,1,0,72.94,0h0c0-.5-.05-1-.07-1.48A36.44,36.44,0,0,1,396.43,271h0a36.47,36.47,0,0,1,36.47,36.47v123.3a36.47,36.47,0,0,1-36.47,36.47h0A36.47,36.47,0,0,1,360,430.78V423.4a36.47,36.47,0,0,1-36.29,32.93h0a36.44,36.44,0,0,1-36.39-34.84c-.17,2.49-.26,5-.26,7.52a109.42,109.42,0,1,0,218.83,0c0-1.44-.05-2.86-.11-4.29,0-.71.11-1.42.11-2.15Z" transform="translate(-136.84 -96.11)" style="fill:#fff;stroke:#000;stroke-miterlimit:10;stroke-width:8px"/><path d="M360.13,427.26a36.47,36.47,0,0,0-36.47-36.47h-.86a36.47,36.47,0,0,0-36.47,36.47v.86c0,.3.21-4.31.22-4l-.18,4.9a36.41,36.41,0,0,1-35.82,30h0a36.45,36.45,0,0,1-36.41-35.22A36.66,36.66,0,0,1,249,392c.51,0,1,.08,1.53.08A36.47,36.47,0,0,0,287,355.6h0a36.47,36.47,0,0,0-36.47-36.47h-.05a109.43,109.43,0,0,0-36.42,6.22V240.47c0-.45-.05-.88-.07-1.33V173a36.44,36.44,0,0,0-36.44-36.44h0A36.44,36.44,0,0,0,141.13,173V421.24c-.17,2.49-.29,5-.29,7.54A109.65,109.65,0,0,0,250.49,538.43h.05A109.57,109.57,0,0,0,360.13,429h0c0-.3,0-.59,0-.89Z" transform="translate(-136.84 -96.11)" style="fill:#fff;stroke:#000;stroke-miterlimit:10;stroke-width:8px"/><path d="M419,131.63a17.65,17.65,0,0,0-17.37-17.37c-3.22-.09-3.22,4.91,0,5A12.54,12.54,0,0,1,414,131.63c.09,3.21,5.09,3.22,5,0Z" transform="translate(-136.84 -96.11)"/><path d="M150.69,184.31V213c0,3.22,5,3.22,5,0V184.31c0-3.22-5-3.22-5,0Z" transform="translate(-136.84 -96.11)"/><path d="M151.46,234.21v75.71c0,3.22,5,3.22,5,0V234.21c0-3.22-5-3.22-5,0Z" transform="translate(-136.84 -96.11)"/><path d="M635.42,480.91v19.35c0,3.22,5,3.22,5,0V480.91c0-3.22-5-3.22-5,0Z" transform="translate(-136.84 -96.11)"/><path d="M635.42,392v72c0,3.22,5,3.22,5,0V392c0-3.22-5-3.22-5,0Z" transform="translate(-136.84 -96.11)"/><path d="M443.46,381.29v19.35c0,3.22,5,3.22,5,0V381.29c0-3.22-5-3.22-5,0Z" transform="translate(-136.84 -96.11)"/><path d="M443.46,362v7.77c0,3.22,5,3.22,5,0V362c0-3.22-5-3.22-5,0Z" transform="translate(-136.84 -96.11)"/><path d="M365,473a46,46,0,0,0,64.17,0c2.32-2.24-1.22-5.77-3.54-3.54a40.86,40.86,0,0,1-57.1,0c-2.31-2.24-5.85,1.29-3.54,3.54Z" transform="translate(-136.84 -96.11)"/><path d="M575.19,264A46,46,0,0,0,511,264c-2.32,2.24,1.22,5.77,3.54,3.54a40.86,40.86,0,0,1,57.1,0c2.31,2.24,5.85-1.29,3.54-3.54Z" transform="translate(-136.84 -96.11)"/><path d="M248.17,375.26c-25.05-1.93-46.45,16.44-49.15,41.23-.35,3.19,4.65,3.17,5,0a40.89,40.89,0,0,1,44.15-36.23c3.21.25,3.19-4.75,0-5Z" transform="translate(-136.84 -96.11)"/><circle cx="297.92" cy="367.84" r="2.76"/><circle cx="64.25" cy="330.95" r="2.77"/><path d="M198.17,528.58c5.83,26.54,15.08,52.5,29.57,75.59a186.52,186.52,0,0,0,57.4,57.75,234.14,234.14,0,0,0,47.49,22.92c3,1.09,4.34-3.74,1.33-4.82-27.78-10-53.94-24.6-75.19-45.27-18.71-18.2-33-40.46-42.76-64.6a266,266,0,0,1-13-42.89c-.69-3.14-5.51-1.81-4.82,1.33Z" transform="translate(-136.84 -96.11)"/><path d="M344.18,688.55l8.83,1.57c3.15.56,4.5-4.26,1.33-4.82l-8.83-1.57c-3.15-.56-4.5,4.26-1.33,4.82Z" transform="translate(-136.84 -96.11)"/></svg>