<?xml version="1.0" encoding="iso-8859-1"?>
<!-- Generator: Adobe Illustrator 19.0.0, SVG Export Plug-In . SVG Version: 6.00 Build 0)  -->
<svg xmlns="http://www.w3.org/2000/svg" xmlns:xlink="http://www.w3.org/1999/xlink" version="1.1" id="Layer_1" x="0px" y="0px" viewBox="0 0 512 512" style="enable-background:new 0 0 512 512;" xml:space="preserve" width="512px" height="512px">
<g>
	<g>
		<path d="M508.513,491.684L309.004,292.173l141.795-141.795l36.365-36.365c18.106-18.107,18.106-47.567,0-65.674l-24.693-24.692    c-18.107-18.106-47.569-18.105-65.674,0l-36.365,36.365L218.636,201.806L20.316,3.487c-3.404-3.405-8.522-4.422-12.969-2.58    C2.9,2.748,0,7.088,0,11.901v488.198C0,506.672,5.328,512,11.901,512h488.198c4.813,0,9.153-2.9,10.995-7.346    C512.935,500.206,511.918,495.088,508.513,491.684z M413.628,40.477c8.827-8.827,23.189-8.827,32.013,0l24.693,24.693    c8.827,8.826,8.827,23.187,0,32.013l-27.949,27.95l-56.706-56.706L413.628,40.477z M227.053,227.052    c0.002-0.002,0.004-0.004,0.006-0.006L368.847,85.257l56.706,56.706L283.763,283.753c-0.002,0.002-0.004,0.004-0.006,0.006    l-60.211,60.211l-28.922,28.922l-19.937-19.937l180.769-180.769c4.647-4.647,4.647-12.183,0-16.831    c-4.647-4.647-12.183-4.647-16.831,0L157.855,336.123l-19.937-19.937l28.922-28.922L227.053,227.052z M231.962,369.216    l33.833,33.833h-67.863c0.477-0.351,0.931-0.733,1.352-1.154l3.756-3.756L231.962,369.216z M125.702,337.632l47.561,47.56    l-60.679,13.46L125.702,337.632z M108.952,311.491v-65.287l32.643,32.643l-28.922,28.924L108.952,311.491z M23.802,488.198    v-18.595h276.97c6.573,0,11.901-5.328,11.901-11.901s-5.328-11.901-11.901-11.901H23.802V40.633l67.25,67.25l-14.809,14.808    c-4.647,4.647-4.648,12.183,0,16.83c2.324,2.324,5.37,3.486,8.415,3.486s6.092-1.163,8.415-3.486l14.809-14.809l57.229,57.229    l-14.809,14.808c-4.647,4.647-4.648,12.183,0,16.83c2.324,2.324,5.37,3.486,8.415,3.486c3.045,0,6.092-1.163,8.415-3.486    l14.809-14.809l19.866,19.866l-43.381,43.381l-52.958-52.959c-3.405-3.404-8.522-4.422-12.969-2.58s-7.346,6.181-7.346,10.995    v197.476c0,6.573,5.328,11.901,11.901,11.901h197.476c4.813,0,9.153-2.9,10.995-7.346c1.842-4.446,0.824-9.566-2.58-12.969    l-54.148-54.149l43.381-43.381l21.056,21.056l-14.809,14.809c-4.647,4.647-4.647,12.183,0,16.83    c2.324,2.324,5.37,3.486,8.415,3.486c3.045,0,6.092-1.163,8.415-3.486l14.808-14.809l57.229,57.228l-14.809,14.809    c-4.647,4.647-4.647,12.183,0,16.83c2.324,2.324,5.37,3.486,8.415,3.486c3.045,0,6.092-1.163,8.415-3.486l14.808-14.809    l67.25,67.25H23.802z" fill="#FFFFFF"/>
	</g>
</g>
<g>
	<g>
		<path d="M385.433,134.719c-0.155-0.762-0.381-1.511-0.678-2.225c-0.297-0.714-0.666-1.404-1.095-2.047    c-0.44-0.655-0.928-1.261-1.488-1.809c-0.547-0.559-1.154-1.047-1.809-1.488c-0.643-0.428-1.333-0.797-2.047-1.095    c-0.726-0.297-1.464-0.524-2.225-0.678c-1.535-0.309-3.118-0.309-4.653,0c-0.762,0.155-1.511,0.381-2.225,0.678    c-0.714,0.298-1.404,0.666-2.059,1.095c-0.643,0.44-1.261,0.928-1.809,1.488c-0.547,0.547-1.047,1.154-1.476,1.809    c-0.428,0.643-0.797,1.333-1.095,2.047c-0.298,0.714-0.524,1.464-0.678,2.225c-0.155,0.774-0.238,1.547-0.238,2.333    c0,0.774,0.083,1.547,0.238,2.321c0.155,0.762,0.381,1.511,0.678,2.225c0.297,0.714,0.666,1.416,1.095,2.059    c0.428,0.643,0.928,1.261,1.476,1.809s1.166,1.047,1.809,1.476c0.655,0.428,1.345,0.797,2.059,1.095    c0.714,0.298,1.464,0.524,2.225,0.678c0.774,0.155,1.547,0.238,2.321,0.238c0.785,0,1.559-0.083,2.333-0.238    c0.762-0.155,1.5-0.381,2.225-0.678c0.714-0.297,1.404-0.666,2.047-1.095c0.654-0.428,1.261-0.928,1.809-1.476    c0.559-0.547,1.047-1.166,1.488-1.809c0.428-0.643,0.797-1.345,1.095-2.059c0.298-0.714,0.524-1.464,0.678-2.225    c0.155-0.774,0.226-1.547,0.226-2.321C385.659,136.266,385.588,135.493,385.433,134.719z" fill="#FFFFFF"/>
	</g>
</g>
<g>
	<g>
		<path d="M351.718,455.374c-0.155-0.762-0.381-1.5-0.678-2.225c-0.298-0.714-0.666-1.404-1.095-2.047    c-0.44-0.655-0.94-1.261-1.488-1.821c-0.547-0.547-1.154-1.035-1.809-1.476c-0.643-0.428-1.333-0.797-2.047-1.095    c-0.726-0.297-1.476-0.524-2.225-0.678c-1.547-0.309-3.118-0.309-4.653,0c-0.762,0.155-1.511,0.381-2.225,0.678    c-0.726,0.298-1.416,0.666-2.059,1.095c-0.655,0.44-1.261,0.928-1.809,1.476c-0.547,0.559-1.047,1.166-1.476,1.821    c-0.428,0.643-0.797,1.333-1.095,2.047c-0.297,0.726-0.524,1.464-0.678,2.225c-0.155,0.774-0.238,1.547-0.238,2.333    c0,3.13,1.273,6.2,3.487,8.414c0.547,0.547,1.154,1.047,1.809,1.476c0.643,0.428,1.333,0.797,2.059,1.095    c0.714,0.297,1.464,0.524,2.225,0.678s1.547,0.238,2.321,0.238c0.774,0,1.559-0.083,2.333-0.238c0.75-0.155,1.5-0.381,2.225-0.678    c0.714-0.298,1.404-0.666,2.047-1.095c0.655-0.428,1.261-0.928,1.809-1.476s1.047-1.154,1.488-1.809    c0.428-0.643,0.797-1.345,1.095-2.059c0.298-0.714,0.524-1.464,0.678-2.225c0.155-0.774,0.226-1.547,0.226-2.321    C351.944,456.921,351.873,456.147,351.718,455.374z" fill="#FFFFFF"/>
	</g>
</g>
<g>
</g>
<g>
</g>
<g>
</g>
<g>
</g>
<g>
</g>
<g>
</g>
<g>
</g>
<g>
</g>
<g>
</g>
<g>
</g>
<g>
</g>
<g>
</g>
<g>
</g>
<g>
</g>
<g>
</g>
</svg>
